<svg xmlns="http://www.w3.org/2000/svg" viewBox="0 0 500 500">
  <style>
    .st0{fill:#f3f4f6}.st1{fill:#e5e7eb}.st2{fill:#d1d5db}.st3{fill:#9ca3af}
  </style>
  <path class="st0" d="M250 395.8c-80.8 0-146.2-65.4-146.2-146.2S169.2 103.4 250 103.4s146.2 65.4 146.2 146.2S330.8 395.8 250 395.8zm0-282.4c-75 0-136.2 61.2-136.2 136.2S175 385.8 250 385.8s136.2-61.2 136.2-136.2S325 113.4 250 113.4z"/>
  <path class="st1" d="M250 103.4c-80.8 0-146.2 65.4-146.2 146.2S169.2 395.8 250 395.8s146.2-65.4 146.2-146.2S330.8 103.4 250 103.4zm0 282.4c-75 0-136.2-61.2-136.2-136.2S175 113.4 250 113.4s136.2 61.2 136.2 136.2S325 385.8 250 385.8z"/>
  <path class="st2" d="M250 171.6c-42.9 0-77.9 35-77.9 77.9s35 77.9 77.9 77.9 77.9-35 77.9-77.9-35-77.9-77.9-77.9zm0 145.8c-37.1 0-67.9-30.8-67.9-67.9s30.8-67.9 67.9-67.9 67.9 30.8 67.9 67.9-30.8 67.9-67.9 67.9z"/>
  <circle class="st3" cx="250" cy="249.5" r="20"/>
  <path class="st3" d="M250 279.5c-16.5 0-30-13.5-30-30s13.5-30 30-30 30 13.5 30 30-13.5 30-30 30zm0-50c-11 0-20 9-20 20s9 20 20 20 20-9 20-20-9-20-20-20z"/>
</svg> 