<svg xmlns="http://www.w3.org/2000/svg" viewBox="0 0 24 24" fill="none" stroke="currentColor" stroke-width="1.5" stroke-linecap="round" stroke-linejoin="round">
  <!-- 店铺主体 -->
  <path d="M4 7V6a2 2 0 0 1 2-2h12a2 2 0 0 1 2 2v1" />
  <path d="M4 7v13a2 2 0 0 0 2 2h12a2 2 0 0 0 2-2V7" />
  <!-- 屋顶 -->
  <path d="M2 7l1.5-1.5L5 7l1.5-1.5L8 7l1.5-1.5L11 7l1.5-1.5L14 7l1.5-1.5L17 7l1.5-1.5L20 7l2-2" />
  <!-- 窗户 -->
  <rect x="7" y="11" width="4" height="4" rx="1" />
  <rect x="13" y="11" width="4" height="4" rx="1" />
  <!-- 门 -->
  <path d="M9 19v-1a2 2 0 0 1 2-2h2a2 2 0 0 1 2 2v1" />
  <!-- 装饰元素 -->
  <path d="M8 7v2" />
  <path d="M16 7v2" />
  <path d="M12 7v2" />
</svg> 